<?xml version="1.0" encoding="UTF-8" standalone="no"?>
<!-- Created with Inkscape (http://www.inkscape.org/) -->

<svg
   width="56.785725mm"
   height="24.588184mm"
   viewBox="0 0 56.785725 24.588184"
   version="1.1"
   id="svg5"
   xml:space="preserve"
   xmlns="http://www.w3.org/2000/svg"
   xmlnsSvg="http://www.w3.org/2000/svg"><defs
     id="defs2" /><g
     id="layer1"
     transform="translate(-11.428565,-27.260369)"><path
       style="fill:#009c4f;stroke-width:0.178372"
       d="M 30.812788,51.269488 C 30.680559,50.951002 30.074946,49.487751 29.466984,48.017817 28.85902,46.547884 28.317395,45.2386 28.263373,45.108294 c -0.07122,-0.171792 0.04352,-0.22077 0.417418,-0.178174 0.48332,0.05506 0.579248,0.215088 1.530522,2.553176 0.558185,1.371938 1.063316,2.654789 1.122512,2.85078 0.07682,0.254328 0.417145,-0.408793 1.188754,-2.316259 0.594617,-1.469933 1.164059,-2.772828 1.265423,-2.895323 0.198918,-0.240383 0.853343,-0.308395 0.857214,-0.08909 0.0012,0.0735 -0.611887,1.636971 -1.362634,3.474387 -1.242187,3.040191 -1.40388,3.340757 -1.797187,3.340757 -0.319236,0 -0.495024,-0.15134 -0.672607,-0.579064 z M 36.25,48.534908 c -0.736607,-1.819448 -1.368132,-3.387842 -1.403389,-3.485317 -0.0357,-0.0987 0.158294,-0.151419 0.4378,-0.118979 0.463771,0.05383 0.573041,0.234233 1.438209,2.37451 0.514966,1.273943 1.024373,2.556793 1.132014,2.85078 0.187977,0.513402 0.240355,0.421883 1.325643,-2.316258 1.052894,-2.656419 1.163643,-2.854785 1.624393,-2.909524 0.413917,-0.04917 0.475271,-0.0056 0.37665,0.267261 -0.0648,0.179303 -0.695038,1.749167 -1.400534,3.488588 -1.191631,2.938002 -1.314986,3.162386 -1.737109,3.159804 C 37.62183,51.843189 37.493363,51.606061 36.25,48.534908 Z m 6.071429,-0.160743 v -3.474388 h 0.446428 0.446429 v 3.474388 3.474387 H 42.767857 42.321429 Z M 45,48.35081 v -3.497743 l 1.830357,0.08282 c 2.086057,0.09439 2.710468,0.333294 3.470859,1.327997 0.418105,0.546945 0.508866,0.861578 0.564261,1.956101 0.05821,1.150092 0.01123,1.397573 -0.397209,2.092984 -0.691657,1.177596 -1.563314,1.535586 -3.738932,1.535586 H 45 Z m 3.734855,2.472967 c 1.591134,-0.812784 1.694959,-3.613302 0.175138,-4.724034 -0.338157,-0.247135 -0.800934,-0.3478 -1.696429,-0.369013 l -1.231421,-0.02917 -0.0493,2.717149 -0.04929,2.717149 1.120722,-3.56e-4 c 0.714912,-1.78e-4 1.34155,-0.11308 1.730578,-0.311804 z M 11.428571,41.070603 v -0.625169 h 9.564886 9.564886 l -0.05596,0.579065 -0.05596,0.579064 -9.508929,0.0461 -9.508929,0.04611 z m 33.088624,-0.669712 c -0.284059,-0.612472 -0.793865,-1.741358 -1.132904,-2.508633 -0.339039,-0.767276 -0.75143,-1.46865 -0.916425,-1.55861 -0.294786,-0.160723 -4.543418,0.215738 -5.171236,0.458213 -0.16096,0.06217 -0.830866,1.110095 -1.48868,2.328734 -0.889418,1.647703 -1.283614,2.215708 -1.537702,2.215708 -0.553098,0 -0.413916,-0.457996 0.851697,-2.802619 0.807369,-1.495699 1.344376,-2.288709 1.660216,-2.451672 0.666303,-0.343792 5.366353,-0.860391 5.919337,-0.650616 0.615631,0.233541 0.69699,0.362448 1.920236,3.042434 1.175255,2.574843 1.290493,3.040647 0.752241,3.040647 -0.243311,0 -0.487523,-0.31741 -0.85678,-1.113586 z m 4.708996,0.994803 c -0.06548,-0.06533 -0.119048,-0.345953 -0.119048,-0.623608 v -0.504825 h 9.553571 9.553572 v 0.623608 0.623608 h -9.434523 c -5.18899,0 -9.488097,-0.05345 -9.553572,-0.118783 z m -12.708334,-6.46391 c -0.798995,-0.326293 -1.022752,-0.856937 -1.631009,-3.867946 -0.708621,-3.507827 -0.728509,-3.803259 -0.256025,-3.803259 0.414002,0 0.385872,-0.09019 1.083591,3.474388 0.629256,3.214802 0.781341,3.475194 2.028582,3.473211 0.406531,-7.13e-4 2.099697,-0.164002 3.76259,-0.363015 1.662894,-0.199012 3.129412,-0.321266 3.258928,-0.271677 0.298779,0.114396 0.307306,0.620771 0.01227,0.728734 -0.359019,0.131376 -6.496798,0.799091 -7.231603,0.786708 -0.3686,-0.0062 -0.830897,-0.07693 -1.027324,-0.157144 z"
       id="path1786" /></g></svg>
