<?xml version="1.0" encoding="UTF-8" standalone="no"?>
<!-- Created with Inkscape (http://www.inkscape.org/) -->

<svg
   version="1.1"
   id="svg2"
   width="512"
   height="512"
   viewBox="0 0 512 512"
   xmlns="http://www.w3.org/2000/svg"
   xmlnsSvg="http://www.w3.org/2000/svg">
  <defs
     id="defs6" />
  <g
     id="g8">
    <path
       style="fill:#009c4f"
       d="m 92.261021,390.62826 c 0.42033,-58.57801 0.22861,-56.83413 8.002189,-72.78561 3.37469,-6.92491 5.81877,-10.17363 13.18953,-17.53176 9.94922,-9.93217 17.55407,-14.56927 30.54726,-18.62638 7.5,-2.34186 7.5,-2.34186 112,-2.34186 104.5,0 104.5,0 112,2.34186 12.99319,4.05711 20.59804,8.69421 30.54726,18.62638 7.37076,7.35813 9.81484,10.60685 13.18953,17.53176 7.77358,15.95148 7.58185,14.2076 8.00219,72.78561 0.37518,52.28562 0.37518,52.28562 -9.9319,52 C 399.5,442.34265 399.5,442.34265 399,390.34265 c -0.48397,-50.33252 -0.56901,-52.16819 -2.65199,-57.2449 -7.53892,-18.37411 -23.0686,-30.84842 -41.35868,-33.22159 -9.94264,-1.29008 -188.03602,-1.29008 -197.97866,0 -18.29008,2.37317 -33.81976,14.84748 -41.35868,33.22159 -2.08298,5.07671 -2.16802,6.91238 -2.65199,57.2449 -0.5,52 -0.5,52 -10.80708,52.28561 -10.307079,0.28562 -10.307079,0.28562 -9.931899,-52 z M 237.91939,256.89341 C 192.94716,248.68064 158.06192,216.59436 146.9753,173.24606 132.67916,117.34871 163.79373,59.202325 218.5,39.581925 c 23.31664,-8.36252 51.68336,-8.36252 75,0 48.20126,17.28738 79.22445,65.417355 74.4751,115.542105 -3.89294,41.08615 -27.08214,74.41939 -64.14447,92.20427 -15.42948,7.40405 -25.43006,9.64702 -44.83063,10.0548 -9.075,0.19075 -18.56127,-0.0296 -21.08061,-0.48969 z M 278.5,235.03966 c 35.00329,-9.44465 60.47081,-36.21124 67.73203,-71.18698 2.722,-13.11125 2.04851,-30.74439 -1.65374,-43.29835 C 338.4921,99.916706 325.33447,81.425065 308.48951,69.835435 302.16348,65.483005 288.72892,59.204975 280.5,56.755795 c -9.00918,-2.6814 -28.55028,-3.66339 -39.08427,-1.96407 -35.30104,5.69467 -63.36364,30.603701 -74.07906,65.754335 -2.42601,7.95824 -2.68313,10.32146 -2.69781,24.79659 -0.0136,13.43738 0.33658,17.28131 2.18662,24 6.45554,23.44423 23.44012,45.17643 44.49264,56.92948 7.25847,4.05221 22.28916,9.26324 30.4396,10.55319 8.69696,1.37646 28.60963,0.4087 36.74228,-1.78566 z"
       id="path295" />
  </g>
</svg>
